<svg id="visual" viewBox="0 0 900 600" width="900" height="600" xmlns="http://www.w3.org/2000/svg" xmlns:xlink="http://www.w3.org/1999/xlink" version="1.1"><g transform="translate(440.3826998741647 316.5247542554131)"><path d="M128 -233C172.3 -196.1 219.1 -174.8 237 -138.6C254.9 -102.3 244 -51.2 230.5 -7.8C217.1 35.7 201.2 71.3 179.6 101.2C158.1 131.1 130.8 155.2 99.9 196C69 236.8 34.5 294.4 -3.6 300.6C-41.7 306.8 -83.3 261.7 -122 225.3C-160.7 189 -196.4 161.5 -206.8 125.4C-217.2 89.3 -202.4 44.7 -205.8 -2C-209.3 -48.7 -231.1 -97.3 -226.5 -143.5C-221.9 -189.7 -191 -233.4 -148.8 -271.6C-106.7 -309.8 -53.3 -342.4 -5.8 -332.4C41.8 -322.5 83.7 -269.9 128 -233" fill="#001122"></path></g></svg>